<?xml version="1.0" encoding="UTF-8"?>
<svg id="Layer_2" data-name="Layer 2" xmlns="http://www.w3.org/2000/svg" viewBox="0 0 319.93 574.3">
  <defs>
    <style>
      .cls-1 {
        fill: #716c5c;
      }

      .cls-2 {
        fill: #b2a897;
      }

      .cls-3 {
        fill: #24211b;
      }

      .cls-4 {
        fill: #423930;
      }

      .cls-5 {
        fill: #ece4d0;
      }
    </style>
  </defs>
  <g id="Layer_1-2" data-name="Layer 1">
    <g>
      <path class="cls-3" d="M316.16,113.73c.29.54,4.28.41,3.71,3.35v341.95c-6.77,5.95-1.95,5.28-2.08,9.73-.04,1.61-2.41-2.82-2.04,7.96.05,1.36-3.53.93-4.7,3.57-20.22,45.82-50.52,76.63-101.24,88.49-87.82,20.55-179.61-16.79-209.81-103.89L.03,119.23c1.83-18.94,17.85-45.36,27.62-62.29C68.47-13.78,217.42-15.81,273.77,35.28c13.9,12.6,38.29,52.94,43.07,70.88.73,2.75-1.58,5.91-.68,7.57ZM31.98,112.22c-1.2.37-2.29,2.33-5.99,0-1.49-8.89-2.98-16.75-2.02-25.96l-10.95,17.99c-3.45,10.63-4.73,33.55-1.02,43.94-7.9-.8-2.06,3.08-2,4,6.93,100.71-5.33,209.01.17,310.53,5.09,28.05,23.61,40.78,43.79,57.11.17.14-.66,2.18,1.3,4.12,4.02,3.98,16.83,9.92,22.68,11.87,2.98,2.93,6.84,4.76,10.64,6.35,42.1,17.6,99.71,15.68,141.21-.36,12.35-4.77,17.77-6.97,27.97-15.98.73-.65,5.82,1.9,4-5.99,15.9-9.14,34.6-27.21,41.96-43.96,3.18-7.24,5.37-14.97,6.07-22.91l.03-305.91-2.1-4.86h-2c.23-.54-.22-1.39,0-2,6.66-18.41,4.82-37.71-7.41-53.42-1.29-1.65.03-3.66-4.57-2.51-.53,6.45.69,13.66-.01,19.97h-5.99c9.07-31-4.41-51.42-28.53-68.38C208.9.49,119.8-.67,67.34,30.7c-28.58,17.09-51.62,47.5-35.36,81.53Z"/>
      <path class="cls-5" d="M163.85,220.12c5-.05,12.66,1.56,15.98-2,2.66-.05,5.33.06,7.99,0s6.61,1,7.99-2c1.29-.15,2.78.22,4,0l2.96,4c-7.27-3.46-8.39,2.2-12.95,5.99-3.13.39-11.41-1.96-11.98,1.98,10.46,1.65,21.51,1.94,31.62,5.41,4.11,1.41,5.96,4.47,6.33,4.6,7.35,9.99-1.05,12.03-1.91,21.23-.56,5.96,2.19,10.45,2.05,15.74-.26,9.8-3.67,39.25-.1,46.93.17.38,11.82-1.35,5.95,3.99-2.18,1.99-7.51-3.73-9.03-4-.92-.17-.76,2.79-1.65,3.23-2.47,1.2-4.7,1.01-7.3,2.78-11.63,7.89-3.73,13.55-3.92,23.07-.2,9.77-.17,20.29-.48,29.88-.27,8.42-3.07,17.95-1.58,26.98-19.71.38-39.35,0-59.04-.09-5.46-.02-12.25,4.2-16.94-.89-4.09-4.43.33-11.68.24-18.01-.16-10.78-1.76-23.23-2.18-33.99-.3-7.65,3.2-25.5-5.04-27.01-12.01-2.19-17.07,11.17-23.87,18.11-4.69,4.78-30.24,23.36-15.05,30.91,12.63,6.28,16.65-15.81,27.96-18.99-3.27,11.22.14,20.71.2,30.96.03,4.7-2.33,9.06-2.24,13.9.51,29.24,22.79,19.11,41.03,19.08,12.82-.02,31.32,2.71,43.96,2.17,4.42-.19,20.39-1.65,23.58-2.56,8.7-2.48,4.91-24.52,5.41-32.55.33-5.18,3.65-11.05,3.83-14.14.05-.86-3.49-.64-3.85-2.19-.86-3.74.46-8.67,0-12.66,2.65-3.02,17.09,15.43,20.08,16.95,2.38,1.21,5.07.62,5.88,1.02,1.3.65,7.3,3.3,7.99,4-1.59-3.14.62-5,3.99-3.99v5.98c-.14.19-3.89-1.8-3.99-2,.17.17-.16,1.92.83,3.22,2.49,3.27,5.83.61-.83,8.75l5.99.02c0,1.33,0,2.66,0,4-2.57.2-5.56,1-5.99,3.98l5.99.02c0,1.33,0,2.66,0,4-2.14,3.54-2.21,4.55-5.98,1.99-.26,1.17.35,3.64-.02,4-.28.28-8.23-.26-3.99,3.99s3.74-3.67,3.99-3.99c1.31-1.69,5.6,2.24,5.99,4,.02,3.99-.03,7.99,0,11.99-5.66-.8-5.66,2.8,0,2,.04,6.86-.07,13.67,0,19.98-9.98,4.91-10.33-2.21-10.98-1.99-6.13,2.11.94,6.36.96,6.99.05,2.68-7.34,3.69-9.95,2.99.74-6.29,7.63-7.57,0-12.99,7.03.34.55-11.37,2-12.97.27-.3,8.22.25,3.99-3.99-4.24-4.24-3.69,3.72-3.99,3.99-.15.13-3.85.13-4,0-.3-.26.25-8.22-3.99-3.99-4.24,4.24,3.73,3.68,3.99,3.99.33.39-.11,4.44,0,5.99-14.1,1.37-28.01,5.99-41.96,7.99-3.65.52-9.75-1.71-11.99,2-11.51-.58-22.65-3.17-20,11.99,1.21,1.17,11.79-4.14,8.14,8.76-.44,1.56-12.31,1.94-8.13,13.21l10.03,1.03c-.96,16.44-3.39,10.02-10.08,13.89-3.06,1.77-.14,11.01,1.22,11.21,7.71,1.12,21.02-6.42,28.81-8.14.04.37,1.63,1.24,2,2-2.78,2.51-15.54,5.09-13.96,8.95,5.63,13.74,23.36.15,27.71-8.19,2.71-5.21.75-12.05,6.21-14.74.35,6.15-2.52,22.97,6.01,23.98-2.81,4.2,1.19,14.04-1.87,16.98-4.01,3.85-20.16,4.01-26.55,5.54-2.92.69-5.07,4.01-7.47,4.65-3.09.82-5.53-1.39-6.9-1.22s-1.08,7.27-5.13,3.98c-.3-.24.68-3.63-1.22-3.95-5.04-.86-18.3,1.68-23.51,1.32-4.93-.34-10.23-2.88-16.19-3.39-2.97-.25-14.88-2.26-13.06,4.07-1.27-.18-2.74.21-4,0l-4.44-6.62-25.53-3.37c-2.35-1.4-8.97-5.01-12.46-6.59-4.64-2.09-10.36-3.56-15.51-3.4-20.18-16.34-38.7-29.06-43.79-57.11-5.5-101.52,6.76-209.82-.17-310.53,29.75,54.39,96.25,68.45,153.85,67.93ZM155.39,252.48c-36.43,6.01-28.12,57.39,5.39,55.63,17.35-.91,32.91-24.96,24.79-40.78-4.18-8.14-21.44-16.29-30.18-14.85ZM237.78,385.96c-.34-.36-2.55-6.84-5.01-8.01-3.89-1.09-6.18,7.21-6.98,8.01-.28.28-8.21-.24-3.99,3.99s3.69-3.72,3.99-3.99c3.98-3.56,3.7,3.73,5,4.03,3.59.81,4.46-7.17,6.99-4.03.25.31-.23,8.21,3.99,3.99,4.25-4.25-3.71-3.7-3.99-3.99ZM225.79,431.89l-3.98-3.98c-.57,4.17-.2,4.55,3.98,3.98ZM249.77,431.89l-3.98-3.98c-.57,4.17-.2,4.55,3.98,3.98ZM85.93,443.9v29.97c21.17,1.48,24.26,1.22,21.98,23.98-.87.86-12.77-.8-13.71-2.29-4.09-6.53,7.95-20.97-12.27-19.7v33.97c0,.65,11.88,2.27,12.73,2.1,1.43-.29,1.17-3.9,2.1-3.88,5.12.13,26.01,3.13,31.67,4.22,7.23,1.4,12.61,8.05,21.43,5.55v-33.97h-14s.02,17.99.02,17.99h-14.01s0-22,0-22h23.99s0-29.96,0-29.96h-12s.02,17.99.02,17.99h-12.01s.02-26,.02-26c-2.51.43-11.31-.67-11.98.03-.84.86-2.06,20.6-2.03,23.95-16.86,2.41-6.9-15.9-10.22-19.75-.39-.45-11.32-2.69-11.75-2.23Z"/>
      <path class="cls-5" d="M293.73,104.23c.7-6.31-.52-13.52.01-19.97,4.6-1.15,3.28.86,4.57,2.51,12.23,15.72,14.07,35.02,7.41,53.42l-2.06-4c-1.05-.84-1.79,1.95-1.94,2-3.18,1-8.63,3.55-11.08.05-2.76-3.95,4.52-11.96-.89-14.02-14.82,46.54-77.03,59.86-119.89,65.95-.48,3.47,4.54,1.88,6.95,1.97,5,.19,10.04-.15,15.02,0,.98,5.4-1.19,9.64-6,11.98-2.07,1.01-14.4,1.66-9.97,5.99.36.36,7.01-1.63,9.97-2,1.3-.16,2.69.12,4,0,1.7-.16,3.42-.04,4-2,7.09-.9,13.13-1.99,19.98-4l2,5.99c-6.81,1.72-17.86,5.05-23.98,5.99-1.88.29-4.07-.24-5.99,0-49.14,6.05-123.45-3.76-157.79-43.02-2.91-3.33-14.98-19.93-16.04-22.92-3.71-10.38-2.43-33.3,1.02-43.94l10.95-17.99c-.96,9.21.53,17.08,2.02,25.96,1.31,7.84,4.37,22.19,10.54,27.49,1.12.96,3.16.23,3.45.49-1.95-3.34-5.8-10.52-7.08-13.91-.69-1.84-2.6-6.53,1.06-6.05,15.31,25.91,45.12,40.06,73.48,47.51,52.14,13.7,129.64,3.1,170.85-39.44,2.37-2.45,1.5-6.87,5.45-8.09v2c-30.16,60.98-126.85,69.86-185.35,52.48-24.31-7.22-39.87-17.82-58.41-34.5,19.07,32.6,70.48,44.61,105.9,45.96,6.96.26,15.09.44,21.98,0,46.17-2.93,119.86-27.83,125.88-81.92Z"/>
      <path class="cls-2" d="M233.78,431.91c-.26-.3-8.22.25-3.99-3.99,4.24-4.24,3.69,3.72,3.99,3.99.15.13,3.85.13,4,0,.3-.26-.25-8.22,3.99-3.99,4.23,4.23-3.72,3.69-3.99,3.99-1.44,1.61,5.04,13.32-2,12.97,7.64,5.42.75,6.7,0,12.99,2.61.71,10-.31,9.95-2.99-.01-.63-7.09-4.88-.96-6.99.64-.22,1,6.9,10.98,1.99.09,7.97-1.39,51.45,2.11,53.88,7.84.05,18.92-6.56,24.31-11.9,1.59-1.57,15.09-18.81,15.54-20,3.32-.7,4.45,1.51,5.99,4-7.36,16.75-26.06,34.82-41.96,43.96-10.85,6.24-26.07,7.62-31.55,10.64-1.84,1.01-.24,5.82-10.42,1.37l1,3.98c-27.48,5.85-53.6,9.5-81.89,7.97-7.47-.4-15.66-2.92-23-3.98-1.82-6.33,10.1-4.32,13.06-4.07,5.96.5,11.26,3.05,16.19,3.39,5.21.36,18.46-2.18,23.51-1.32,1.9.32.92,3.71,1.22,3.95,4.06,3.29,3.77-3.8,5.13-3.98s3.81,2.04,6.9,1.22c2.4-.64,4.55-3.95,7.47-4.65,6.39-1.52,22.53-1.68,26.55-5.54,3.07-2.94-.94-12.78,1.87-16.98,12.9,1.51,23.72-8.4,19.99-21.99h-10.01c-1.46,1.44,3.42,12.18-3.98,9.99.53-3.02-.85-15.04.06-15.9s7.95,1.6,9.65-3.34c1.53-4.46.74-35.69.26-42.69-.11-1.56.33-5.61,0-5.99ZM253.75,481.87c-2.18-2.18-6.15,1.8-3.98,3.98s6.15-1.8,3.98-3.98ZM220.8,519.83v2c1.3-.67,1.3-1.33,0-2Z"/>
      <path class="cls-4" d="M209.81,76.26c24.75,1.97,62.1,11.62,61.96,41.95,1.35-.1,5.83-5.59,5.97-5.98l2,2c-7.41,14.54-23.45,23.37-35.96,32.98,1.54,2.97,4.81-.44,6.57-1.42,13.54-7.56,32.98-26.54,37.38-41.55h5.99c-6.02,54.09-79.71,78.99-125.88,81.92-5.07-3.41-17.3-3.32-21.98,0-35.41-1.35-86.82-13.35-105.9-45.96,18.55,16.68,34.1,27.27,58.41,34.5,58.5,17.38,155.19,8.5,185.35-52.48,1.13-2.28,5.21-4.46,4.03-8.97-2.29-3.6-3.27,4.19-4.03,6.97-3.95,1.22-3.08,5.64-5.45,8.09-41.22,42.54-118.72,53.14-170.85,39.44-28.36-7.45-58.16-21.6-73.48-47.51-3.66-.48-1.75,4.22-1.06,6.05,1.28,3.39,5.13,10.57,7.08,13.91-.28-.25-2.33.47-3.45-.49-6.17-5.3-9.23-19.64-10.54-27.49,3.7,2.33,4.79.37,5.99,0,1.85-.57,1.86-1.96,2-2,.41-.12,1.59-.12,2,0,5.53,1.68,9.24,14.9,11.99,17.98-2.62-2.54-6.69-4.64-9-7.98-1.48-.31-1.36,2.09-.97,2.96.88,1.98,17.86,18.84,19.96,16.99-3.19-3.77-6.49-8.57-9.99-11.97,17.88,20.04,65.27,35.6,91.91,37.96-.76.41-1.48,1.84-2,2-1.73.52-4.63-1.42-3.99,1.98,10.76-1.14,23.95,2.56,33.96-1.98h2c1.68,1.91,3.47,2.43,5.99,1.98.34-2.22-1.91-1.87-2-1.98-.6-.76-1.01-1.63-2-2,1.52-.11,8.57-1.52,11.99-2v2c1.47,3.54,6.89,1.71,9.98,1.98v-1.96c-1.32-.09-2.66.04-3.99-.02v-2c8.74-1.54,58.02-17.99,59.47-24.9.1-.46-1.54-.97-1.53-1.08.12-1.28-.31-3.13,0-4,9.21-.27,12.14-5.25,15.98-11.99.33-.58,1.93-3.78,2-4,2.66-8.73,1.84-11.38-4-18.97-2.38-3.09-13.53-14.32-17.98-9-4.56-2.54-9.24-4.86-13.99-5.99l2-1.98c-7.39.32-14.97-3.31-21.98-4.02v-2ZM227.78,156.2l-31.95,9.95c6.06.19,11.79-1.79,17.49-3.45,4.02-1.18,12.35-2.81,14.45-6.5ZM129.88,166.19h-9.97v1.96h9.97v-1.96Z"/>
      <path class="cls-5" d="M303.72,475.87c-1.54-2.49-2.68-4.69-5.99-4,.8-2.14,1.89-15.43,2.09-18.89,5.47-91.32-4.37-188.04,0-279.94-.27-2.41.79-3.63-2.09-4.88-.74-.32-2.73.11-4,0,3.78-9.09,12.59-15.41,13.99-25.97l2.1,4.86-.03,305.91c-.7,7.94-2.89,15.67-6.07,22.91Z"/>
      <path class="cls-2" d="M287.73,104.23c-4.39,15.01-23.84,33.99-37.38,41.55-1.76.98-5.03,4.39-6.57,1.42,12.51-9.61,28.54-18.44,35.96-32.98,21.07-41.32-7.05-69.8-41.96-85.92-20.68-9.55-38.6-14.52-61.94-15.98-10.18-.64-23.81-.68-33.97,0-4.79.32-7.39,1.68-9.99,2-50.54,6.27-113.58,33.87-97.9,95.91-.14.04-.14,1.43-2,2-16.26-34.02,6.78-64.43,35.36-81.53C119.8-.67,208.9.49,259.2,35.86c24.12,16.96,37.6,37.37,28.53,68.38Z"/>
      <path class="cls-2" d="M233.78,535.81l-4,5.99c-41.5,16.03-99.11,17.96-141.21.36-3.8-1.59-7.66-3.42-10.64-6.35,48.88,16.3,106.72,14.5,155.85,0Z"/>
      <path class="cls-4" d="M53.96,519.83c5.16-.16,10.87,1.31,15.51,3.4,3.49,1.58,10.11,5.19,12.46,6.59,10.04,5.97,10.59,5.55,21.98,7.99,2.42.52,4.31,1.39,7.99,2,1.26.21,2.72-.18,4,0,7.34,1.05,15.53,3.57,23,3.98,28.29,1.53,54.41-2.12,81.89-7.97l-1-3.98c10.18,4.45,8.58-.35,10.42-1.37,5.48-3.02,20.7-4.4,31.55-10.64,1.82,7.9-3.26,5.35-4,5.99-7.59,4.32-15.61,7.52-23.98,9.99-49.13,14.5-106.97,16.3-155.85,0-5.85-1.95-18.65-7.89-22.68-11.87-1.96-1.94-1.13-3.98-1.3-4.12Z"/>
      <path class="cls-4" d="M12,148.19c1.07,2.99,13.13,19.59,16.04,22.92,34.33,39.26,108.64,49.07,157.79,43.02l2,2v2c-2.66.06-5.33-.05-7.99,0-5.02.09-12.64-1.6-15.98,2-57.6.52-124.1-13.54-153.85-67.93-.06-.91-5.9-4.8,2-4Z"/>
      <path class="cls-2" d="M293.73,168.17c1.26.11,3.26-.32,4,0-1.81,8.83-12.51,18.49-19.53,23.89-23.28,17.92-59.22,30.44-88.36,34.05,4.56-3.79,5.68-9.45,12.95-5.99l-2.96-4c31.74-5.69,55.96-17.5,79.92-37.96,1.19-.63,1.33-1.15,2-2,3.34-3.13,3.46.99,7.99-7.99.97-.22,2.85-.1,4,0Z"/>
      <path class="cls-2" d="M305.71,140.2c-.22.61.23,1.45,0,2-3.61,8.37-11.29,16.69-15.98,25.97-8.64,1.96-5.41,4.71-7.99,7.99-.68.64-1.32,1.42-2,2-22.47,11.9-37.36,23.25-63.94,29.97l-2-5.99c9.66-2.83,25-7.85,33.97-11.99-.19.11-2.19,3.83-2,3.98,2.95.67,4.16-.87,5.98-2.99.25-1.64-3.47-1.27-3.99-.99,19.38-8.94,49.02-30.38,53.95-51.95.15-.05.89-2.84,1.94-2l2.06,4Z"/>
      <path class="cls-4" d="M307.71,142.19c-1.4,10.57-10.21,16.88-13.99,25.97-1.15-.1-3.03-.22-4,0,4.69-9.29,12.38-17.61,15.98-25.97h2Z"/>
      <path class="cls-4" d="M279.74,178.16c.68-.58,1.32-1.36,2-2-.67.85-.81,1.37-2,2Z"/>
      <path class="cls-4" d="M279.74,178.16c-23.97,20.46-48.18,32.27-79.92,37.96-1.22.22-2.71-.15-4,0-.64.08-1.34,0-2,0l-2-2c6.12-.94,17.17-4.27,23.98-5.99,26.57-6.72,41.47-18.07,63.94-29.97Z"/>
      <path class="cls-4" d="M289.73,168.17c-4.53,8.98-4.65,4.87-7.99,7.99,2.58-3.28-.64-6.03,7.99-7.99Z"/>
      <path class="cls-1" d="M229.79,541.8l4-5.99c8.36-2.47,16.39-5.67,23.98-9.99-10.2,9.02-15.62,11.21-27.97,15.98Z"/>
      <path class="cls-3" d="M297.72,471.87c-.44,1.19-13.95,18.43-15.54,20-5.4,5.34-16.47,11.95-24.31,11.9-3.49-2.43-2.01-45.91-2.11-53.88-.07-6.31.04-13.12,0-19.98,0-.67,0-1.33,0-2-.03-3.99.02-7.99,0-11.99-.01-3.33.01-6.66,0-9.99,0-1.33,0-2.66,0-4s0-2.66,0-4,0-2.66,0-4c-.11-34.84-.39-69.57.04-104.49-8.45-8.78-31.26-17.53-22.13-32.51,3.67-6.02,13.91-3.34,12.08-7.83-1.06-2.6-25.45-9.43-29.95-11.02-.37-.13-2.22-3.2-6.33-4.6-10.11-3.46-21.16-3.76-31.62-5.41.56-3.94,8.85-1.59,11.98-1.98,29.15-3.61,65.08-16.13,88.36-34.05,7.02-5.4,17.72-15.06,19.53-23.89,2.88,1.24,1.82,2.47,2.09,4.88-4.36,91.9,5.48,188.61,0,279.94-.21,3.46-1.29,16.75-2.09,18.89Z"/>
      <path class="cls-3" d="M241.78,377.96c-.82-.41-3.5.19-5.88-1.02-2.99-1.52-17.43-19.97-20.08-16.95.46,3.99-.86,8.92,0,12.66.36,1.55,3.9,1.33,3.85,2.19-.19,3.09-3.51,8.96-3.83,14.14-.51,8.03,3.29,30.07-5.41,32.55-3.2.91-19.16,2.37-23.58,2.56-12.64.55-31.13-2.18-43.96-2.17-18.24.03-40.52,10.16-41.03-19.08-.08-4.83,2.27-9.2,2.24-13.9-.06-10.25-3.46-19.74-.2-30.96-11.31,3.18-15.33,25.27-27.96,18.99-15.18-7.55,10.37-26.13,15.05-30.91,6.8-6.94,11.86-20.3,23.87-18.11,8.25,1.5,4.75,19.36,5.04,27.01.42,10.77,2.02,23.21,2.18,33.99.09,6.33-4.33,13.58-.24,18.01,4.69,5.09,11.48.86,16.94.89,19.69.09,39.33.47,59.04.09-1.48-9.03,1.31-18.57,1.58-26.98.31-9.58.28-20.11.48-29.88.2-9.52-7.71-15.18,3.92-23.07,4.59-.82,6.57.41,10.1,2.88,4.32,3.02,35.17,35.28,35.2,38.08.02,1.96-5.19,7.59-7.34,8.99Z"/>
      <path class="cls-2" d="M215.8,238.1c4.5,1.59,28.9,8.41,29.95,11.02,1.82,4.5-8.41,1.82-12.08,7.83-9.13,14.98,13.67,23.73,22.13,32.51-.43,34.92-.14,69.64-.04,104.49l-5.99-.02c6.65-8.14,3.31-5.48.83-8.75-.99-1.3-.66-3.05-.83-3.22.1.2,3.84,2.19,3.98,2v-5.98c-3.36-1.02-5.57.85-3.98,3.99-.69-.7-6.69-3.35-7.99-4,2.16-1.4,7.36-7.04,7.34-8.99-.03-2.8-30.88-35.06-35.2-38.08-3.54-2.47-5.52-3.7-10.1-2.88,2.61-1.77,4.83-1.58,7.3-2.78.89-.43.72-3.39,1.65-3.23,1.52.27,6.85,5.99,9.03,4,5.86-5.34-5.78-3.62-5.95-3.99-3.57-7.69-.16-37.13.1-46.93.14-5.3-2.61-9.78-2.05-15.74.86-9.2,9.26-11.24,1.91-21.23ZM229.78,268.08c-2.18-2.18-6.15,1.8-3.98,3.98s6.15-1.8,3.98-3.98ZM229.79,276.06c-6.28-.14-7.14,3.4,0,4,0,1.1.19,3.83,0,4-.3.26-8.25-.28-3.99,3.99s3.71-3.7,3.99-3.99c1.1-1.15,4.02,3.06,4-4,0-1.13.27-3.71,0-3.99s-2.84.02-3.99,0ZM245.76,336.02c-2.18-2.18-6.15,1.8-3.98,3.98,2.18,2.18,6.15-1.8,3.98-3.98Z"/>
      <path class="cls-3" d="M85.93,443.9c.44-.46,11.36,1.77,11.75,2.23,3.32,3.84-6.64,22.16,10.22,19.75-.03-3.35,1.19-23.09,2.03-23.95.67-.69,9.47.4,11.98-.03l-.02,26h12.01s-.02-18-.02-18h12v29.98h-23.99s0,21.99,0,21.99h14.01s-.02-18-.02-18h14v33.98c-8.82,2.5-14.19-4.15-21.43-5.55-5.66-1.09-26.55-4.1-31.67-4.22-.94-.02-.67,3.59-2.1,3.88-.85.17-12.73-1.46-12.73-2.1v-33.97c20.22-1.28,8.18,13.17,12.27,19.7.94,1.49,12.83,3.15,13.71,2.29,2.28-22.77-.81-22.5-21.98-23.98v-29.97Z"/>
      <path class="cls-3" d="M233.78,437.91c.48,7,1.27,38.23-.26,42.69-1.7,4.94-8.71,2.45-9.65,3.34s.47,12.88-.06,15.9c7.4,2.19,2.52-8.55,3.98-9.99h10.01c3.73,13.59-7.09,23.5-19.99,21.99-8.54-1-5.66-17.82-6.01-23.98-5.46,2.7-3.5,9.54-6.21,14.74-4.34,8.34-22.08,21.93-27.71,8.19-1.58-3.86,11.18-6.45,13.96-8.95,9.89-8.92.23-11.76-.16-14.85-1.58-12.41,1.47-28.24.16-41.1,13.95-2,27.85-6.63,41.96-7.99ZM221.79,449.9c-4.55-.38-9,.53-13.34,1.72-3.41.94-5.57-1.46-4.62,4.25,4.55.38,9-.53,13.34-1.72,3.41-.94,5.57,1.46,4.62-4.25ZM221.8,461.9c-4.55-.36-9,.52-13.35,1.71-3.42.93-5.56-1.45-4.62,4.26,5.37-1.34,15.04-.34,17.97-5.96ZM221.79,473.89c-4.03-.59-7.75.57-11.63,1.36-2.45.5-6.84-.58-6.34,2.6,4.03.59,7.75-.57,11.63-1.36,2.45-.5,6.84.58,6.34-2.6Z"/>
      <path class="cls-3" d="M155.39,252.48c8.74-1.44,26.01,6.7,30.18,14.85,8.12,15.83-7.44,39.87-24.79,40.78-33.51,1.76-41.82-49.62-5.39-55.63Z"/>
      <path class="cls-3" d="M179.84,447.9c3.32.17,6.69-.15,10,0,3.95,11.36-9.8,9.26-10.11,11.1-.28,1.65-.29,10.49.1,10.88,1.79,1.76,12.25-4.16,10.05,5.03-1.84,7.68-8.64,3.77-9.96,5.03-.85.81.38,9.36-.06,11.91l9.97-1.98c.29,3.27-.37,6.74.01,9.98-7.78,1.72-21.1,9.26-28.81,8.14-1.36-.2-4.28-9.43-1.22-11.21,6.68-3.87,9.11,2.55,10.08-13.89l-10.03-1.03c-4.17-11.28,7.69-11.65,8.13-13.21,3.65-12.91-6.93-7.59-8.14-8.76-2.66-15.16,8.49-12.57,20-11.99Z"/>
      <path class="cls-2" d="M191.83,445.9c1.31,12.86-1.74,28.69-.16,41.1.39,3.09,10.05,5.93.16,14.85-.37-.76-1.96-1.63-2-2-.38-3.24.28-6.72-.01-9.98l-9.97,1.98c.45-2.55-.79-11.1.06-11.91,1.32-1.26,8.12,2.65,9.96-5.03,2.2-9.19-8.26-3.26-10.05-5.03-.39-.38-.38-9.23-.1-10.88.31-1.84,14.06.26,10.11-11.1-3.31-.16-6.68.16-10,0,2.24-3.71,8.34-1.47,11.99-2Z"/>
      <path class="cls-2" d="M81.93,529.82l25.53,3.37,4.44,6.62c-3.68-.61-5.57-1.48-7.99-2,.45.45,2.05-.31,2-1-.15-2.18-2.94.06-2,1-11.39-2.44-11.93-2.02-21.98-7.99Z"/>
      <path class="cls-2" d="M225.79,385.96c.8-.81,3.08-9.1,6.98-8.01,2.45,1.18,4.67,7.65,5.01,8.01.27.29,8.23-.26,3.99,3.99-4.22,4.22-3.74-3.68-3.99-3.99-2.52-3.14-3.4,4.83-6.99,4.03-1.3-.29-1.03-7.58-5-4.03-.3.27.25,8.22-3.99,3.99s3.71-3.7,3.99-3.99Z"/>
      <path class="cls-2" d="M255.76,415.93c-.4-1.76-4.68-5.69-5.99-4-.24.31.23,8.2-3.99,3.99s3.71-3.7,3.99-3.99c.36-.37-.24-2.83.02-4,3.77,2.56,3.84,1.55,5.98-1.99.01,3.33-.01,6.66,0,9.99Z"/>
      <path class="cls-2" d="M179.84,218.12c-3.32,3.56-10.98,1.95-15.98,2,3.34-3.6,10.96-1.91,15.98-2Z"/>
      <path class="cls-2" d="M255.76,397.94c0,1.33,0,2.66,0,4l-5.99-.02c.43-2.97,3.42-3.78,5.99-3.98Z"/>
      <path class="cls-2" d="M193.82,216.12c.65,0,1.36.08,2,0-1.39,3-5.36,1.93-7.99,2v-2h5.99Z"/>
      <path class="cls-2" d="M249.77,431.89c-4.17.57-4.55.2-3.98-3.98l3.98,3.98Z"/>
      <path class="cls-2" d="M225.79,431.89c-4.17.57-4.55.2-3.98-3.98l3.98,3.98Z"/>
      <path class="cls-2" d="M255.76,427.92c0,.67,0,1.33,0,2-5.66.8-5.66-2.8,0-2Z"/>
      <path class="cls-3" d="M301.72,138.2c-4.93,21.57-34.56,43-53.95,51.95-8.97,4.14-24.31,9.16-33.97,11.99-6.85,2.01-12.89,3.1-19.98,4-1.66.21-3.48,0-4,2-1.31.12-2.7-.16-4,0v-4c4.81-2.34,6.98-6.58,6-11.98-4.98-.16-10.02.18-15.02,0-2.41-.09-7.43,1.5-6.95-1.97,42.86-6.09,105.07-19.41,119.89-65.95,5.41,2.06-1.87,10.07.89,14.02,2.45,3.51,7.89.96,11.08-.05Z"/>
      <path class="cls-3" d="M167.85,186.15c-6.89.44-15.02.26-21.98,0,4.67-3.32,16.91-3.41,21.98,0Z"/>
      <path class="cls-4" d="M185.83,204.13v4c-2.96.37-9.61,2.35-9.97,2-4.43-4.34,7.9-4.99,9.97-5.99Z"/>
      <path class="cls-3" d="M191.83,214.12l2,2h-5.99l-2-2c1.92-.24,4.11.29,5.99,0Z"/>
      <path class="cls-4" d="M193.82,206.13c-.58,1.96-2.3,1.84-4,2,.51-2,2.33-1.79,4-2Z"/>
      <path class="cls-1" d="M253.75,481.87c2.18,2.18-1.8,6.15-3.98,3.98s1.8-6.15,3.98-3.98Z"/>
      <path class="cls-5" d="M220.8,519.83c1.3.67,1.3,1.33,0,2v-2Z"/>
      <path class="cls-5" d="M233.78,44.29c24.46,10.96,55.18,37.88,43.96,67.93-.15.4-4.62,5.88-5.97,5.98.14-30.33-37.21-39.98-61.96-41.95-1.94-.15-4.05-.08-5.99,0-23.61-8.9-48.64-40.41-74.71-37.73-10.16,1.04-23.86,8.05-27.19,17.75-1.65,4.81-1.43,4.95,0,9.99-.61,5.5-6.67,8.9-6.06,14.91,1.32,12.89,47.01,25.66,58.72,31.33,10.86,5.26,17.14,11.02,29.26,15.7.57.22,1.39-.21,2,0,1.05.36,2.21,1.51,4,2,.62.17,1.38-.17,2,0,.93.25,2.32,1.98,4,2,.64,0,1.95.1,2,0,14.03,7.69,32.9,14.69,47.95,5.99h2c-.01.11,1.62.62,1.53,1.08-1.45,6.91-50.73,23.36-59.47,24.9-1.82.32-4.1-.26-5.99,0-3.42.47-10.47,1.89-11.99,2-9.14.65-22.93.8-31.97,0-26.64-2.36-74.03-17.92-91.91-37.96-2.75-3.09-6.46-16.3-11.99-17.98-.48-44.63,51.19-72.19,89.91-77.92,35.16-5.21,75.12-2.7,107.89,11.99Z"/>
      <path class="cls-3" d="M105.91,58.28c1.3,3.08-.54,6.12,3.45,10.09,5.2,5.18,30.06,15.54,38.51,19.88,1.62.83,3.49,2.73,5.99,4,3.09,1.57,5.78,4.38,9.99,5.99,9.96,3.81,17.46,6.59,27.8.83,7.34-4.09,11.37-13.15,6.17-20.81.97-2.61,3.8-1.91,5.99-2,1.95-.08,4.06-.15,5.99,0v2c-2.22-.22-4.54.15-6.78-.03l-1.2,6.01c5.26,2.14,3.43-4.03,5.1-4.08,1.16-.04,20.17,3.45,22.86,4.09,4.75,1.13,9.42,3.45,13.99,5.99,11.18,6.22,23.32,12.53,21.98,27.97-.07.21-1.67,3.41-2,4-2.42,3.38-15.31,10.14-15.98,11.99-.31.86.12,2.72,0,4h-2c-1.64-2.07-3.67-1.86-5.99-2-16.51-1.01-22.07-1.75-37.96-5.99-.21-.06-2.52-3.36-3.98-1.99-.44.42.43,3.17-.01,3.98-.05.1-1.36,0-2,0,1.69-7.47-4.58-9.36-4-2-.62-.17-1.38.17-2,0-.24-3.06,1.29-6.71-1.97-5.98l-2.02,3.98c-.61-.21-1.43.22-2,0,5.85-9.35-2.26-5.01-5.56-6.75-1.07-.57-1.69-2.83-2.43-3.24-2.6-1.43-5.35-2.64-7.99-4-.09-4.06,1.75-6.03-2.49-8.6-15.71-9.53-42.12-17.26-55.98-27.33-.47-.34-5.27-5.67-5.48-6.03-.16-.27-1.73-5.03-2-5.99-1.43-5.04-1.65-5.18,0-9.99.9.71,3.78,1.48,4,2Z"/>
      <path class="cls-3" d="M131.88,14.32l5.99,2c-2.87.41-17.32,1.38-17.95,2.03-2.07,2.1-.73,11.92,5.97,11.96v2c-38.72,5.74-90.39,33.29-89.91,77.92-.4-.12-1.59-.12-2,0C18.31,48.19,81.34,20.59,131.88,14.32Z"/>
      <path class="cls-3" d="M237.78,28.31c34.91,16.12,63.02,44.59,41.96,85.92l-2-2c11.22-30.05-19.5-56.98-43.96-67.93v-2c7.03-.1,8.04-7.52,4-11.99v-2Z"/>
      <path class="cls-2" d="M209.81,78.26c7.01.71,14.58,4.34,21.98,4.02l-2,1.98c-2.69-.64-21.7-4.13-22.86-4.09-1.67.06.16,6.23-5.1,4.08l1.2-6.01c2.24.18,4.56-.19,6.78.03Z"/>
      <path class="cls-2" d="M265.75,118.22c1.34-15.45-10.8-21.75-21.98-27.97,4.45-5.32,15.6,5.91,17.98,9,5.84,7.6,6.66,10.24,4,18.97Z"/>
      <path class="cls-2" d="M47.97,128.21c3.5,3.4,6.8,8.2,9.99,11.97-2.1,1.85-19.08-15.01-19.96-16.99-.39-.87-.51-3.27.97-2.96,2.32,3.35,6.38,5.44,9,7.98Z"/>
      <path class="cls-3" d="M171.84,166.17c.99.37,1.4,1.24,2,2h-35.96c.52-.16,1.23-1.58,2-2,9.04.8,22.83.65,31.97,0Z"/>
      <path class="cls-1" d="M137.88,168.17h29.97c-10,4.54-23.19.84-33.96,1.98-.64-3.39,2.26-1.46,3.99-1.98Z"/>
      <path class="cls-2" d="M227.78,156.2c-2.11,3.69-10.43,5.32-14.45,6.5-5.7,1.67-11.44,3.64-17.49,3.45l31.95-9.95Z"/>
      <path class="cls-2" d="M247.77,134.2c.67-1.85,13.56-8.61,15.98-11.99-3.85,6.74-6.77,11.72-15.98,11.99Z"/>
      <path class="cls-2" d="M283.74,122.21v-2c.76-2.78,1.74-10.57,4.03-6.97,1.18,4.5-2.9,6.69-4.03,8.97Z"/>
      <path class="cls-2" d="M189.83,166.17c1.33.06,2.66-.07,3.98.02v1.96c-3.08-.27-8.5,1.56-9.98-1.98,1.99.06,4-.08,5.99,0Z"/>
      <rect class="cls-2" x="119.91" y="166.19" width="9.97" height="1.96"/>
      <path class="cls-1" d="M173.84,168.17c.09.11,2.33-.25,2,1.98-2.52.45-4.31-.06-5.99-1.98h4Z"/>
      <path class="cls-3" d="M189.83,164.17v2c-1.99-.08-4,.06-5.99,0v-2c1.9-.26,4.18.32,5.99,0Z"/>
      <path class="cls-4" d="M237.78,28.31v2c-6.54-2.52-13.23-5.11-19.98-7.07-10.51-3.06-34.37-8.11-45.96-8.91l4-2c23.34,1.47,41.26,6.44,61.94,15.98Z"/>
      <path class="cls-3" d="M175.84,12.32l-4,2c-7.17-.5-16.82-.51-23.98,0l-5.99-2c10.16-.68,23.79-.64,33.97,0Z"/>
      <path class="cls-4" d="M141.87,12.32l5.99,2c-1.23.09-6.86,1.56-9.99,2l-5.99-2c2.6-.32,5.2-1.68,9.99-2Z"/>
      <path class="cls-1" d="M247.77,190.15c.51-.28,4.24-.65,3.99.99-1.82,2.12-3.04,3.65-5.98,2.99-.19-.15,1.8-3.87,2-3.98Z"/>
      <path class="cls-1" d="M245.76,336.02c2.18,2.18-1.8,6.15-3.98,3.98-2.18-2.18,1.8-6.15,3.98-3.98Z"/>
      <path class="cls-1" d="M229.79,276.06v4c1.32.11,2.67-.07,4,0,.02,7.06-2.9,2.85-4,4-.28.29.25,8.22-3.99,3.99s3.69-3.72,3.99-3.99c.19-.16,0-2.9,0-4-7.14-.59-6.28-4.14,0-4Z"/>
      <path class="cls-5" d="M229.79,276.06c1.15.03,3.7-.29,3.99,0s0,2.86,0,3.99c-1.32-.07-2.68.11-4,0v-4Z"/>
      <path class="cls-1" d="M229.78,268.08c2.18,2.18-1.8,6.15-3.98,3.98s1.8-6.15,3.98-3.98Z"/>
      <path class="cls-2" d="M221.79,449.9c.95,5.71-1.21,3.32-4.62,4.25-4.35,1.19-8.8,2.1-13.34,1.72-.95-5.71,1.21-3.32,4.62-4.25,4.35-1.19,8.8-2.1,13.34-1.72Z"/>
      <path class="cls-2" d="M221.8,461.9c-2.93,5.63-12.6,4.63-17.97,5.96-.95-5.7,1.2-3.32,4.62-4.26,4.35-1.19,8.81-2.06,13.35-1.71Z"/>
      <path class="cls-2" d="M221.79,473.89c.5,3.17-3.89,2.1-6.34,2.6-3.87.79-7.6,1.94-11.63,1.36-.5-3.17,3.89-2.1,6.34-2.6,3.87-.79,7.6-1.94,11.63-1.36Z"/>
      <path class="cls-5" d="M103.91,537.81c-.94-.94,1.85-3.18,2-1,.05.69-1.55,1.45-2,1Z"/>
      <path class="cls-4" d="M103.91,72.26c-10.24,12.41,4.95,17.81,14.64,22.32,15.48,7.21,32.09,10.92,47.3,19.64,2.49,1.42,7.93,9.11,9.99,4,.74.41,1.36,2.67,2.43,3.24,3.3,1.74,11.4-2.6,5.56,6.75-12.12-4.68-18.4-10.43-29.26-15.7-11.7-5.67-57.39-18.45-58.72-31.33-.62-6.01,5.44-9.41,6.06-14.91.27.96,1.84,5.72,2,5.99Z"/>
      <path class="cls-4" d="M203.81,76.26c-2.19.09-5.03-.61-5.99,2-2.05-3.01-51.27-34.64-55.4-35.5-13.06-2.74-32.27,1.05-36.52,15.52-.22-.51-3.1-1.29-4-2,3.33-9.7,17.04-16.71,27.19-17.75,26.07-2.67,51.1,28.84,74.71,37.73Z"/>
      <path class="cls-4" d="M125.89,30.3c6,.03,17.72-3.82,24.89-4.08,29.09-1.04,50.54,2.28,74.98,11.12,3.02,1.09,6.01,2.28,8.03,4.95v2c-32.78-14.68-72.73-17.2-107.89-11.99v-2Z"/>
      <path class="cls-4" d="M201.82,130.21c9.95,7.17,26.35,11.16,37.96,5.99,2.32.14,4.35-.07,5.99,2-15.05,8.7-33.92,1.69-47.95-5.99.44-.81-.43-3.57.01-3.98,1.47-1.38,3.77,1.93,3.98,1.99Z"/>
      <path class="cls-4" d="M191.83,130.21c-.58-7.36,5.69-5.48,4,2-1.67-.02-3.07-1.75-4-2Z"/>
      <path class="cls-4" d="M189.83,130.21c-1.79-.48-2.95-1.64-4-2l2.02-3.98c3.27-.74,1.73,2.92,1.97,5.98Z"/>
      <path class="cls-5" d="M197.82,78.26c5.21,7.66,1.18,16.72-6.17,20.81-10.34,5.76-17.85,2.98-27.8-.83.2-.95,1.08-1.88,2-2,2.44-.31,5.83.73,8.04-.89,3.42-2.5,2.62-9.57-1.07-11.07-6.36-2.6-3.52,4.03-6.95,3.97-1.68-8.63,2.93-5.75,9.97-5.98.66-.02,1.34.06,2,0,24.27-2.08-5.09-21.78-20.72-13.71-9.15,4.72-6.34,10.04-7.25,17.71-.11.93-1.03,1.81-2,2-8.45-4.33-33.31-14.7-38.51-19.88-3.99-3.98-2.16-7.01-3.45-10.09,4.25-14.47,23.45-18.26,36.52-15.52,4.13.87,53.35,32.49,55.4,35.5ZM115.9,66.27c10.65,11.72,39.2,7.8,33.59-10.59-4.76-15.6-50.76-8.29-33.59,10.59-7.05-10.23,24.37-13.56,30.02-4.98,2.35,7.52-13.34,9.67-18.88,8.9-1.26-.17-10.81-3.43-11.14-3.92Z"/>
      <path class="cls-5" d="M103.91,72.26c.2.35,5.01,5.69,5.48,6.03,13.85,10.07,40.26,17.81,55.98,27.33,4.24,2.57,2.4,4.54,2.49,8.6h-2c-15.21-8.71-31.81-12.43-47.3-19.64-9.69-4.51-24.89-9.91-14.64-22.32Z"/>
      <path class="cls-2" d="M239.78,136.2c-11.61,5.16-28.01,1.18-37.96-5.99,15.89,4.24,21.45,4.98,37.96,5.99Z"/>
      <path class="cls-1" d="M165.85,96.24c-.92.12-1.8,1.04-2,2-4.21-1.61-6.9-4.43-9.99-5.99h2l9.99,4Z"/>
      <path class="cls-2" d="M155.86,92.24h-2c-2.51-1.27-4.37-3.16-5.99-4,.97-.18,1.89-1.06,2-2l5.99,5.99Z"/>
      <path class="cls-2" d="M175.84,118.22c-2.06,5.12-7.5-2.57-9.99-4h2c2.64,1.36,5.4,2.56,7.99,4Z"/>
      <path class="cls-2" d="M171.84,14.32c11.59.8,35.45,5.85,45.96,8.91,6.75,1.97,13.44,4.55,19.98,7.07,4.05,4.47,3.04,11.89-4,11.99-2.01-2.67-5-3.86-8.03-4.95-24.44-8.84-45.88-12.16-74.98-11.12-7.18.26-18.9,4.11-24.89,4.08-6.69-.04-8.04-9.86-5.97-11.96.63-.64,15.08-1.62,17.95-2.03,3.14-.44,8.76-1.91,9.99-2,7.16-.51,16.81-.5,23.98,0Z"/>
      <path class="cls-4" d="M177.84,82.25l2-3.97c-3.04.51-5.51-1.38-8-2.02-5.26-1.36-9.73-3.44-14.81.17-8.89,6.31,2.64,16.45,4.81,13.81-1.31-9.92.17-11.53,10-11.98l4,4c-7.04.24-11.65-2.64-9.97,5.98,3.43.06.6-6.56,6.95-3.97,3.69,1.51,4.49,8.57,1.07,11.07-2.21,1.62-5.6.58-8.04.89l-9.99-4-5.99-5.99c.91-7.67-1.9-12.98,7.25-17.71,15.63-8.07,44.99,11.63,20.72,13.71ZM167.84,68.28h-5.97s0,1.96,0,1.96l5.96,2.02v-3.99Z"/>
      <path class="cls-4" d="M115.9,66.27c.34.49,9.88,3.75,11.14,3.92,5.54.76,21.23-1.39,18.88-8.9-5.65-8.58-37.08-5.25-30.02,4.98-17.16-18.88,28.84-26.19,33.59-10.59,5.61,18.39-22.94,22.31-33.59,10.59ZM131.87,50.3h-7.97v1.96h7.97v-1.96ZM137.87,50.3c-2.81-1.44-5.33,1.26-3.98,1.96,2.81,1.44,5.33-1.26,3.98-1.96Z"/>
      <path class="cls-1" d="M171.84,76.26c2.48.64,4.96,2.53,8,2.02l-2,3.97c-.66.06-1.33-.02-2,0l-4-4v-2Z"/>
      <path class="cls-5" d="M171.84,76.26v2c-9.83.45-11.31,2.06-10,11.98-2.17,2.64-13.7-7.5-4.81-13.81,5.08-3.61,9.55-1.53,14.81-.17Z"/>
      <polygon class="cls-1" points="167.84 68.28 167.83 72.26 161.87 70.24 161.86 68.29 167.84 68.28"/>
      <rect class="cls-1" x="123.9" y="50.3" width="7.97" height="1.96"/>
      <path class="cls-1" d="M137.87,50.3c1.36.69-1.17,3.39-3.98,1.96-1.36-.69,1.17-3.39,3.98-1.96Z"/>
    </g>
  </g>
</svg>